<svg version="1.1" xmlns="http://www.w3.org/2000/svg" xmlns:xlink="http://www.w3.org/1999/xlink" x="0px" y="0px" width="500px"
     height="500px" viewBox="0 0 500 500" style="enable-background:new 0 0 500 500;" xml:space="preserve">
<style type="text/css">
<![CDATA[
    .st1{fill:#FF8965;}
    .st2{fill:#FFEE65;}
    .st3{fill:#65FFBF;}
    .st4{fill:#65C5FF;}
    .st6{font-family:'Microsoft Yahei';}
    .st7{font-size:24;}
]]>
</style>
<g id="ring">
    <path class="st1" d="M74.5,250C74.5,153.517,153,75.277,249,75.006v-50C125,25.277,24.5,125.903,24.5,250
        c0,0.334,0.011,0.666,0.013,1h50C74.511,250.666,74.5,250.334,74.5,250z"/>
    <path class="st2" d="M474.75,250c0-124.264-100.736-225-225-225c-0.167,0,0.25,0.006-0.75,0.006v50c1,0,0.583-0.006,0.75-0.006
        c96.649,0,175.125,78.35,175.125,175c0,0.334-0.011,0.666-0.013,1h49.875C474.739,250.666,474.75,250.334,474.75,250z"/>
    <path class="st3" d="M424.862,251c-0.541,96.188-78.859,174-175.175,174c-0.167,0,0.313-0.006-0.688-0.006v50
        c1,0,0.583,0.006,0.75,0.006c123.93,0,224.447-100.197,224.987-224H424.862z"/>
    <path class="st4" d="M74.513,251h-50C25.052,374.636,125.334,474.724,249,474.994v-50C153.333,424.725,75.054,347.021,74.513,251z"
        />
</g>
<g id="text">
    <text transform="matrix(0.5383 -0.8428 0.8428 0.5383 83.6812 158.6709)"><tspan x="0" y="0" class="st0 st6 st7">技</tspan><tspan x="21.583" y="-0.022" class="st0 st6 st7" rotate="6.515">术</tspan><tspan x="43.034" y="2.404" class="st0 st6 st7" rotate="13.014">输</tspan><tspan x="64.077" y="7.244" class="st0 st6 st7" rotate="19.516">出</tspan><tspan x="84.455" y="14.758" class="st0 st6 st7" rotate="23.74"> </tspan><tspan x="102.111" y="23.264" class="st0 st6 st7" rotate="29.686">  </tspan><tspan x="131.302" y="43.006" class="st0 st6 st7" rotate="40.449">  </tspan><tspan x="156.286" y="67.85" class="st0 st6 st7" rotate="51.193">   </tspan><tspan x="176.247" y="96.905" class="st0 st6 st7" rotate="61.761">  </tspan><tspan x="190.517" y="129.139" class="st0 st6 st7" rotate="72.486"> </tspan><tspan x="198.516" y="163.462" class="st0 st6 st7" rotate="83.258"> </tspan><tspan x="199.266" y="169.788" class="st0 st6 st7" rotate="85.196"> </tspan><tspan x="199.804" y="176.157" class="st0 st6 st7" rotate="87.137"> </tspan><tspan x="200.124" y="182.529" class="st0 st6 st7" rotate="89.072"> </tspan><tspan x="200.521" y="188.771" class="st0 st6 st7" rotate="93.301">数</tspan><tspan x="199.3" y="210.324" class="st0 st6 st7" rotate="99.807">据</tspan><tspan x="195.644" y="231.614" class="st0 st6 st7" rotate="106.308">驱</tspan><tspan x="189.601" y="252.349" class="st0 st6 st7" rotate="112.82">动</tspan><tspan x="180.928" y="272.254" class="st0 st6 st7" rotate="117.052"> </tspan><tspan x="166.027" y="297.523" class="st0 st6 st7" rotate="125.989">    </tspan><tspan x="143.19" y="324.372" class="st0 st6 st7" rotate="136.766"> </tspan><tspan x="115.742" y="346.437" class="st0 st6 st7" rotate="146.504">    </tspan><tspan x="84.715" y="363.195" class="st0 st6 st7" rotate="158.032"> </tspan><tspan x="51.107" y="373.839" class="st0 st6 st7" rotate="168.81">  </tspan><tspan x="16.27" y="378.303" class="st0 st6 st7" rotate="-178.159">交</tspan><tspan x="-5.319" y="377.631" class="st0 st6 st7" rotate="-171.646">互</tspan><tspan x="-26.695" y="374.515" class="st0 st6 st7" rotate="-165.144">体</tspan><tspan x="-47.566" y="369.004" class="st0 st6 st7" rotate="-158.64">验</tspan><tspan x="-67.687" y="360.838" class="st0 st6 st7" rotate="-154.412">   </tspan><tspan x="-85.057" y="351.769" class="st0 st6 st7" rotate="-148.458">   </tspan><tspan x="-113.591" y="331.09" class="st0 st6 st7" rotate="-137.688">   </tspan><tspan x="-137.764" y="305.441" class="st0 st6 st7" rotate="-126.964">  </tspan><tspan x="-156.789" y="275.762" class="st0 st6 st7" rotate="-116.396">  </tspan><tspan x="-169.998" y="243.112" class="st0 st6 st7" rotate="-105.656">  </tspan><tspan x="-176.881" y="208.544" class="st0 st6 st7" rotate="-94.891"> </tspan><tspan x="-177.427" y="202.175" class="st0 st6 st7" rotate="-92.949"> </tspan><tspan x="-178.045" y="195.967" class="st0 st6 st7" rotate="-88.719">平</tspan><tspan x="-177.583" y="174.367" class="st0 st6 st7" rotate="-82.202">台</tspan><tspan x="-174.673" y="152.961" class="st0 st6 st7" rotate="-75.7">工</tspan><tspan x="-169.365" y="132.042" class="st0 st6 st7" rotate="-69.198">具</tspan></text>
</g>
</svg>
